# xmcd
# Copyright (C) 1995-1998 Ti Kan
#
# Track frame offsets:
#       150
#       16128
#       34772
#       52193
#       66432
#       79147
#       91987
#       112864
#       124427
#       138003
#       156659
#       173418
#       184988
#       199947
#       217497
#
# Disc length: 3106 seconds
#
# Revision: 0
# Processed by: cddbd v1.5.2PL0 Copyright (c) Steve Scherf et al.
# Submitted via: CD-Transfer v1.0
#
DISCID=dd0c200f
DTITLE=Tercet Egtzotyczny 2009 - 
DYEAR=09
DGENRE=
TTITLE0=Niespelniona Milosc
TTITLE1=Zatancz Cyganskie Tango
TTITLE2=Wolaj Gitaro
TTITLE3=Hispaniola
TTITLE4=Plaze Kaliforni
TTITLE5=Tarantela
TTITLE6=Ile Tu Juz Lat
TTITLE7=Trynidad
TTITLE8=Hiszpanski Karnawal
TTITLE9=Kto Nam Kazal
TTITLE10=Noc W Ekwadorze
TTITLE11=Vaya Con Dios
TTITLE12=Cordoba
TTITLE13=Cantinerio De Cuba
TTITLE14=Od Malego
EXTD=
EXTT0=
EXTT1=
EXTT2=
EXTT3=
EXTT4=
EXTT5=
EXTT6=
EXTT7=
EXTT8=
EXTT9=
EXTT10=
EXTT11=
EXTT12=
EXTT13=
EXTT14=
PLAYORDER=
